<mxfile host="Electron" modified="2023-06-04T20:57:48.405Z" agent="Mozilla/5.0 (Windows NT 10.0; Win64; x64) AppleWebKit/537.36 (KHTML, like Gecko) draw.io/21.2.8 Chrome/112.0.5615.165 Electron/24.2.0 Safari/537.36" etag="QwNoZWbadpSNYUU84Rz6" version="21.2.8" type="device">
  <diagram name="Page-1" id="mLQ_XVHuGvEOCb3nRhEn">
    <mxGraphModel dx="1418" dy="828" grid="1" gridSize="10" guides="1" tooltips="1" connect="1" arrows="1" fold="1" page="1" pageScale="1" pageWidth="1169" pageHeight="1654" math="0" shadow="0">
      <root>
        <mxCell id="0" />
        <mxCell id="1" parent="0" />
        <mxCell id="KvnRA5Yr2zpOSTINbMvu-173" style="edgeStyle=orthogonalEdgeStyle;rounded=0;orthogonalLoop=1;jettySize=auto;html=1;exitX=0.5;exitY=1;exitDx=0;exitDy=0;exitPerimeter=0;entryX=0.5;entryY=0;entryDx=0;entryDy=0;entryPerimeter=0;strokeWidth=2;endArrow=none;endFill=0;" parent="1" source="KvnRA5Yr2zpOSTINbMvu-1" target="KvnRA5Yr2zpOSTINbMvu-14" edge="1">
          <mxGeometry relative="1" as="geometry" />
        </mxCell>
        <mxCell id="KvnRA5Yr2zpOSTINbMvu-1" value="Начало" style="strokeWidth=2;html=1;shape=mxgraph.flowchart.terminator;whiteSpace=wrap;" parent="1" vertex="1">
          <mxGeometry x="120" y="40" width="118.11" height="39.37" as="geometry" />
        </mxCell>
        <mxCell id="KvnRA5Yr2zpOSTINbMvu-146" style="edgeStyle=orthogonalEdgeStyle;rounded=0;orthogonalLoop=1;jettySize=auto;html=1;exitX=0.5;exitY=1;exitDx=0;exitDy=0;exitPerimeter=0;strokeWidth=2;endArrow=none;endFill=0;" parent="1" source="KvnRA5Yr2zpOSTINbMvu-2" target="KvnRA5Yr2zpOSTINbMvu-25" edge="1">
          <mxGeometry relative="1" as="geometry" />
        </mxCell>
        <mxCell id="KvnRA5Yr2zpOSTINbMvu-147" style="edgeStyle=orthogonalEdgeStyle;rounded=0;orthogonalLoop=1;jettySize=auto;html=1;exitX=0.5;exitY=1;exitDx=0;exitDy=0;exitPerimeter=0;entryX=0;entryY=0.5;entryDx=0;entryDy=0;strokeWidth=2;" parent="1" source="KvnRA5Yr2zpOSTINbMvu-2" target="KvnRA5Yr2zpOSTINbMvu-3" edge="1">
          <mxGeometry relative="1" as="geometry" />
        </mxCell>
        <mxCell id="KvnRA5Yr2zpOSTINbMvu-2" value="Таб меню" style="strokeWidth=2;html=1;shape=mxgraph.flowchart.decision;whiteSpace=wrap;" parent="1" vertex="1">
          <mxGeometry x="120" y="199.99999999999997" width="118.11" height="78.74" as="geometry" />
        </mxCell>
        <mxCell id="KvnRA5Yr2zpOSTINbMvu-172" style="edgeStyle=orthogonalEdgeStyle;rounded=0;orthogonalLoop=1;jettySize=auto;html=1;exitX=1;exitY=0.5;exitDx=0;exitDy=0;entryX=0;entryY=0.5;entryDx=0;entryDy=0;entryPerimeter=0;strokeWidth=2;endArrow=none;endFill=0;" parent="1" source="KvnRA5Yr2zpOSTINbMvu-3" target="KvnRA5Yr2zpOSTINbMvu-52" edge="1">
          <mxGeometry relative="1" as="geometry" />
        </mxCell>
        <mxCell id="KvnRA5Yr2zpOSTINbMvu-3" value="Открытие страницы &quot;Бренды&quot;" style="rounded=0;whiteSpace=wrap;html=1;absoluteArcSize=1;arcSize=14;strokeWidth=2;" parent="1" vertex="1">
          <mxGeometry x="280" y="278.74" width="118.11" height="78.74" as="geometry" />
        </mxCell>
        <mxCell id="KvnRA5Yr2zpOSTINbMvu-59" style="edgeStyle=orthogonalEdgeStyle;rounded=0;orthogonalLoop=1;jettySize=auto;html=1;exitX=1;exitY=0.5;exitDx=0;exitDy=0;exitPerimeter=0;strokeWidth=2;endArrow=none;endFill=0;" parent="1" source="KvnRA5Yr2zpOSTINbMvu-11" target="KvnRA5Yr2zpOSTINbMvu-12" edge="1">
          <mxGeometry relative="1" as="geometry" />
        </mxCell>
        <mxCell id="KvnRA5Yr2zpOSTINbMvu-63" style="edgeStyle=orthogonalEdgeStyle;rounded=0;orthogonalLoop=1;jettySize=auto;html=1;exitX=0.5;exitY=1;exitDx=0;exitDy=0;exitPerimeter=0;entryX=0.5;entryY=0;entryDx=0;entryDy=0;entryPerimeter=0;endArrow=none;endFill=0;strokeWidth=2;" parent="1" source="KvnRA5Yr2zpOSTINbMvu-11" target="KvnRA5Yr2zpOSTINbMvu-19" edge="1">
          <mxGeometry relative="1" as="geometry" />
        </mxCell>
        <mxCell id="KvnRA5Yr2zpOSTINbMvu-11" value="Выбран бренд" style="strokeWidth=2;html=1;shape=mxgraph.flowchart.decision;whiteSpace=wrap;" parent="1" vertex="1">
          <mxGeometry x="440" y="483.15" width="118.11" height="78.74" as="geometry" />
        </mxCell>
        <mxCell id="KvnRA5Yr2zpOSTINbMvu-108" style="edgeStyle=orthogonalEdgeStyle;rounded=0;orthogonalLoop=1;jettySize=auto;html=1;exitX=1;exitY=0.5;exitDx=0;exitDy=0;entryX=0;entryY=0.5;entryDx=0;entryDy=0;entryPerimeter=0;strokeWidth=2;endArrow=none;endFill=0;" parent="1" source="KvnRA5Yr2zpOSTINbMvu-12" target="KvnRA5Yr2zpOSTINbMvu-100" edge="1">
          <mxGeometry relative="1" as="geometry" />
        </mxCell>
        <mxCell id="KvnRA5Yr2zpOSTINbMvu-12" value="Открытие страницы&lt;br&gt;&quot;Категории номенклатуры&quot;" style="rounded=0;whiteSpace=wrap;html=1;absoluteArcSize=1;arcSize=14;strokeWidth=2;" parent="1" vertex="1">
          <mxGeometry x="578.4300000000001" y="483.15" width="118.11" height="78.74" as="geometry" />
        </mxCell>
        <mxCell id="KvnRA5Yr2zpOSTINbMvu-116" style="edgeStyle=orthogonalEdgeStyle;rounded=0;orthogonalLoop=1;jettySize=auto;html=1;exitX=0.5;exitY=1;exitDx=0;exitDy=0;exitPerimeter=0;entryX=0.5;entryY=0;entryDx=0;entryDy=0;entryPerimeter=0;strokeWidth=2;endArrow=none;endFill=0;" parent="1" source="KvnRA5Yr2zpOSTINbMvu-13" target="KvnRA5Yr2zpOSTINbMvu-113" edge="1">
          <mxGeometry relative="1" as="geometry" />
        </mxCell>
        <mxCell id="KvnRA5Yr2zpOSTINbMvu-117" style="edgeStyle=orthogonalEdgeStyle;rounded=0;orthogonalLoop=1;jettySize=auto;html=1;exitX=1;exitY=0.5;exitDx=0;exitDy=0;exitPerimeter=0;entryX=0;entryY=0.5;entryDx=0;entryDy=0;strokeWidth=2;endArrow=none;endFill=0;" parent="1" source="KvnRA5Yr2zpOSTINbMvu-13" target="KvnRA5Yr2zpOSTINbMvu-21" edge="1">
          <mxGeometry relative="1" as="geometry" />
        </mxCell>
        <mxCell id="KvnRA5Yr2zpOSTINbMvu-13" value="Выбрана&lt;br&gt;категория" style="strokeWidth=2;html=1;shape=mxgraph.flowchart.decision;whiteSpace=wrap;" parent="1" vertex="1">
          <mxGeometry x="724.41" y="680" width="118.11" height="78.74" as="geometry" />
        </mxCell>
        <mxCell id="KvnRA5Yr2zpOSTINbMvu-174" style="edgeStyle=orthogonalEdgeStyle;rounded=0;orthogonalLoop=1;jettySize=auto;html=1;exitX=0.5;exitY=1;exitDx=0;exitDy=0;exitPerimeter=0;entryX=0.5;entryY=0;entryDx=0;entryDy=0;entryPerimeter=0;strokeWidth=2;endArrow=none;endFill=0;" parent="1" source="KvnRA5Yr2zpOSTINbMvu-14" target="KvnRA5Yr2zpOSTINbMvu-2" edge="1">
          <mxGeometry relative="1" as="geometry" />
        </mxCell>
        <mxCell id="KvnRA5Yr2zpOSTINbMvu-14" value="Бесконечный цикл" style="strokeWidth=2;html=1;shape=mxgraph.flowchart.loop_limit;whiteSpace=wrap;" parent="1" vertex="1">
          <mxGeometry x="120" y="100" width="118.11" height="78.74" as="geometry" />
        </mxCell>
        <mxCell id="KvnRA5Yr2zpOSTINbMvu-58" style="edgeStyle=orthogonalEdgeStyle;rounded=0;orthogonalLoop=1;jettySize=auto;html=1;exitX=1;exitY=0.5;exitDx=0;exitDy=0;exitPerimeter=0;strokeWidth=2;endArrow=none;endFill=0;" parent="1" source="KvnRA5Yr2zpOSTINbMvu-19" target="KvnRA5Yr2zpOSTINbMvu-20" edge="1">
          <mxGeometry relative="1" as="geometry" />
        </mxCell>
        <mxCell id="KvnRA5Yr2zpOSTINbMvu-66" style="edgeStyle=orthogonalEdgeStyle;rounded=0;orthogonalLoop=1;jettySize=auto;html=1;exitX=0.5;exitY=1;exitDx=0;exitDy=0;exitPerimeter=0;entryX=0.5;entryY=1;entryDx=0;entryDy=0;entryPerimeter=0;strokeWidth=2;endArrow=none;endFill=0;" parent="1" source="KvnRA5Yr2zpOSTINbMvu-19" target="KvnRA5Yr2zpOSTINbMvu-53" edge="1">
          <mxGeometry relative="1" as="geometry" />
        </mxCell>
        <mxCell id="KvnRA5Yr2zpOSTINbMvu-19" value="Начат поиск" style="strokeWidth=2;html=1;shape=mxgraph.flowchart.decision;whiteSpace=wrap;" parent="1" vertex="1">
          <mxGeometry x="440" y="580" width="118.11" height="78.74" as="geometry" />
        </mxCell>
        <mxCell id="KvnRA5Yr2zpOSTINbMvu-65" style="edgeStyle=orthogonalEdgeStyle;rounded=0;orthogonalLoop=1;jettySize=auto;html=1;exitX=0.5;exitY=1;exitDx=0;exitDy=0;entryX=0.5;entryY=1;entryDx=0;entryDy=0;entryPerimeter=0;strokeWidth=2;endArrow=none;endFill=0;" parent="1" source="KvnRA5Yr2zpOSTINbMvu-20" target="KvnRA5Yr2zpOSTINbMvu-53" edge="1">
          <mxGeometry relative="1" as="geometry">
            <Array as="points">
              <mxPoint x="637" y="1580" />
              <mxPoint x="499" y="1580" />
            </Array>
          </mxGeometry>
        </mxCell>
        <mxCell id="KvnRA5Yr2zpOSTINbMvu-20" value="Открытие страницы&lt;br&gt;результатов поиска" style="rounded=0;whiteSpace=wrap;html=1;absoluteArcSize=1;arcSize=14;strokeWidth=2;" parent="1" vertex="1">
          <mxGeometry x="578.4300000000001" y="580" width="118.11" height="78.74" as="geometry" />
        </mxCell>
        <mxCell id="KvnRA5Yr2zpOSTINbMvu-83" style="edgeStyle=orthogonalEdgeStyle;rounded=0;orthogonalLoop=1;jettySize=auto;html=1;exitX=0.5;exitY=1;exitDx=0;exitDy=0;entryX=0.5;entryY=0;entryDx=0;entryDy=0;entryPerimeter=0;strokeWidth=2;endArrow=none;endFill=0;" parent="1" source="KvnRA5Yr2zpOSTINbMvu-21" target="KvnRA5Yr2zpOSTINbMvu-64" edge="1">
          <mxGeometry relative="1" as="geometry" />
        </mxCell>
        <mxCell id="KvnRA5Yr2zpOSTINbMvu-21" value="Открытие страницы&lt;br&gt;&quot;Список номенклатуры&quot;" style="rounded=0;whiteSpace=wrap;html=1;absoluteArcSize=1;arcSize=14;strokeWidth=2;" parent="1" vertex="1">
          <mxGeometry x="880" y="680" width="118.11" height="78.74" as="geometry" />
        </mxCell>
        <mxCell id="KvnRA5Yr2zpOSTINbMvu-129" style="edgeStyle=orthogonalEdgeStyle;rounded=0;orthogonalLoop=1;jettySize=auto;html=1;exitX=1;exitY=0.5;exitDx=0;exitDy=0;exitPerimeter=0;entryX=0;entryY=0.5;entryDx=0;entryDy=0;strokeWidth=2;endArrow=none;endFill=0;" parent="1" source="KvnRA5Yr2zpOSTINbMvu-22" target="KvnRA5Yr2zpOSTINbMvu-23" edge="1">
          <mxGeometry relative="1" as="geometry" />
        </mxCell>
        <mxCell id="KvnRA5Yr2zpOSTINbMvu-131" style="edgeStyle=orthogonalEdgeStyle;rounded=0;orthogonalLoop=1;jettySize=auto;html=1;exitX=0.5;exitY=1;exitDx=0;exitDy=0;exitPerimeter=0;entryX=0.5;entryY=0;entryDx=0;entryDy=0;entryPerimeter=0;strokeWidth=2;endArrow=none;endFill=0;" parent="1" source="KvnRA5Yr2zpOSTINbMvu-22" target="KvnRA5Yr2zpOSTINbMvu-85" edge="1">
          <mxGeometry relative="1" as="geometry" />
        </mxCell>
        <mxCell id="KvnRA5Yr2zpOSTINbMvu-22" value="Выбрана&lt;br&gt;номенклатура" style="strokeWidth=2;html=1;shape=mxgraph.flowchart.decision;whiteSpace=wrap;" parent="1" vertex="1">
          <mxGeometry x="880" y="978.11" width="118.11" height="78.74" as="geometry" />
        </mxCell>
        <mxCell id="KvnRA5Yr2zpOSTINbMvu-136" style="edgeStyle=orthogonalEdgeStyle;rounded=0;orthogonalLoop=1;jettySize=auto;html=1;exitX=0.5;exitY=1;exitDx=0;exitDy=0;entryX=0.5;entryY=0;entryDx=0;entryDy=0;entryPerimeter=0;strokeWidth=2;endArrow=none;endFill=0;" parent="1" source="KvnRA5Yr2zpOSTINbMvu-23" target="KvnRA5Yr2zpOSTINbMvu-90" edge="1">
          <mxGeometry relative="1" as="geometry" />
        </mxCell>
        <mxCell id="KvnRA5Yr2zpOSTINbMvu-23" value="Открытие страницы&lt;br&gt;&quot;Номенклатура&quot;" style="rounded=0;whiteSpace=wrap;html=1;absoluteArcSize=1;arcSize=14;strokeWidth=2;" parent="1" vertex="1">
          <mxGeometry x="1017.4799999999999" y="978.11" width="118.11" height="78.74" as="geometry" />
        </mxCell>
        <mxCell id="KvnRA5Yr2zpOSTINbMvu-190" style="edgeStyle=orthogonalEdgeStyle;rounded=0;orthogonalLoop=1;jettySize=auto;html=1;exitX=0.5;exitY=1;exitDx=0;exitDy=0;exitPerimeter=0;entryX=0.5;entryY=0;entryDx=0;entryDy=0;strokeWidth=2;endArrow=none;endFill=0;" parent="1" source="KvnRA5Yr2zpOSTINbMvu-25" target="KvnRA5Yr2zpOSTINbMvu-187" edge="1">
          <mxGeometry relative="1" as="geometry" />
        </mxCell>
        <mxCell id="KvnRA5Yr2zpOSTINbMvu-25" value="ТМ" style="strokeWidth=2;html=1;shape=mxgraph.flowchart.start_2;whiteSpace=wrap;" parent="1" vertex="1">
          <mxGeometry x="159.37000000000012" y="1740" width="39.37" height="39.37" as="geometry" />
        </mxCell>
        <mxCell id="KvnRA5Yr2zpOSTINbMvu-26" value="ТМ" style="strokeWidth=2;html=1;shape=mxgraph.flowchart.start_2;whiteSpace=wrap;" parent="1" vertex="1">
          <mxGeometry x="1040" y="896.5300000000002" width="39.37" height="39.37" as="geometry" />
        </mxCell>
        <mxCell id="KvnRA5Yr2zpOSTINbMvu-74" style="edgeStyle=orthogonalEdgeStyle;rounded=0;orthogonalLoop=1;jettySize=auto;html=1;exitX=0.5;exitY=1;exitDx=0;exitDy=0;exitPerimeter=0;entryX=0.5;entryY=0;entryDx=0;entryDy=0;entryPerimeter=0;strokeWidth=2;endArrow=none;endFill=0;" parent="1" source="KvnRA5Yr2zpOSTINbMvu-52" target="KvnRA5Yr2zpOSTINbMvu-72" edge="1">
          <mxGeometry relative="1" as="geometry" />
        </mxCell>
        <mxCell id="KvnRA5Yr2zpOSTINbMvu-52" value="Бесконечный цикл" style="strokeWidth=2;html=1;shape=mxgraph.flowchart.loop_limit;whiteSpace=wrap;" parent="1" vertex="1">
          <mxGeometry x="440" y="278.74" width="118.11" height="78.74" as="geometry" />
        </mxCell>
        <mxCell id="KvnRA5Yr2zpOSTINbMvu-149" style="edgeStyle=orthogonalEdgeStyle;rounded=0;orthogonalLoop=1;jettySize=auto;html=1;exitX=0.5;exitY=0;exitDx=0;exitDy=0;exitPerimeter=0;entryX=0.5;entryY=0;entryDx=0;entryDy=0;entryPerimeter=0;strokeWidth=2;endArrow=none;endFill=0;" parent="1" source="KvnRA5Yr2zpOSTINbMvu-53" target="KvnRA5Yr2zpOSTINbMvu-25" edge="1">
          <mxGeometry relative="1" as="geometry">
            <Array as="points">
              <mxPoint x="499" y="1720" />
              <mxPoint x="179" y="1720" />
            </Array>
          </mxGeometry>
        </mxCell>
        <mxCell id="KvnRA5Yr2zpOSTINbMvu-53" value="Конец цикла" style="strokeWidth=2;html=1;shape=mxgraph.flowchart.loop_limit;whiteSpace=wrap;flipH=1;flipV=1;" parent="1" vertex="1">
          <mxGeometry x="440" y="1610" width="118.11" height="78.74" as="geometry" />
        </mxCell>
        <mxCell id="KvnRA5Yr2zpOSTINbMvu-137" style="edgeStyle=orthogonalEdgeStyle;rounded=0;orthogonalLoop=1;jettySize=auto;html=1;exitX=0.5;exitY=1;exitDx=0;exitDy=0;exitPerimeter=0;entryX=0.5;entryY=0;entryDx=0;entryDy=0;entryPerimeter=0;strokeWidth=2;endArrow=none;endFill=0;" parent="1" source="KvnRA5Yr2zpOSTINbMvu-57" target="KvnRA5Yr2zpOSTINbMvu-132" edge="1">
          <mxGeometry relative="1" as="geometry" />
        </mxCell>
        <mxCell id="KvnRA5Yr2zpOSTINbMvu-138" style="edgeStyle=orthogonalEdgeStyle;rounded=0;orthogonalLoop=1;jettySize=auto;html=1;exitX=1;exitY=0.5;exitDx=0;exitDy=0;exitPerimeter=0;entryX=0;entryY=0.5;entryDx=0;entryDy=0;entryPerimeter=0;strokeWidth=2;endArrow=none;endFill=0;" parent="1" source="KvnRA5Yr2zpOSTINbMvu-57" target="KvnRA5Yr2zpOSTINbMvu-134" edge="1">
          <mxGeometry relative="1" as="geometry" />
        </mxCell>
        <mxCell id="KvnRA5Yr2zpOSTINbMvu-57" value="Выбран&lt;br&gt;другой&lt;br&gt;таб" style="strokeWidth=2;html=1;shape=mxgraph.flowchart.decision;whiteSpace=wrap;" parent="1" vertex="1">
          <mxGeometry x="1017.4799999999999" y="1176.85" width="118.11" height="78.74" as="geometry" />
        </mxCell>
        <mxCell id="KvnRA5Yr2zpOSTINbMvu-84" style="edgeStyle=orthogonalEdgeStyle;rounded=0;orthogonalLoop=1;jettySize=auto;html=1;exitX=0.5;exitY=1;exitDx=0;exitDy=0;exitPerimeter=0;entryX=0.5;entryY=0;entryDx=0;entryDy=0;entryPerimeter=0;strokeWidth=2;endArrow=none;endFill=0;" parent="1" source="KvnRA5Yr2zpOSTINbMvu-64" target="KvnRA5Yr2zpOSTINbMvu-80" edge="1">
          <mxGeometry relative="1" as="geometry" />
        </mxCell>
        <mxCell id="KvnRA5Yr2zpOSTINbMvu-64" value="Бесконечный цикл" style="strokeWidth=2;html=1;shape=mxgraph.flowchart.loop_limit;whiteSpace=wrap;" parent="1" vertex="1">
          <mxGeometry x="880" y="776.85" width="118.11" height="78.74" as="geometry" />
        </mxCell>
        <mxCell id="KvnRA5Yr2zpOSTINbMvu-76" style="edgeStyle=orthogonalEdgeStyle;rounded=0;orthogonalLoop=1;jettySize=auto;html=1;exitX=0.5;exitY=1;exitDx=0;exitDy=0;exitPerimeter=0;entryX=0.5;entryY=0;entryDx=0;entryDy=0;entryPerimeter=0;strokeWidth=2;endArrow=none;endFill=0;" parent="1" source="KvnRA5Yr2zpOSTINbMvu-72" target="KvnRA5Yr2zpOSTINbMvu-11" edge="1">
          <mxGeometry relative="1" as="geometry" />
        </mxCell>
        <mxCell id="0FscZG6fRG8HBKqRgame-6" style="edgeStyle=orthogonalEdgeStyle;rounded=0;orthogonalLoop=1;jettySize=auto;html=1;exitX=1;exitY=0.5;exitDx=0;exitDy=0;exitPerimeter=0;entryX=0;entryY=0.5;entryDx=0;entryDy=0;entryPerimeter=0;strokeWidth=2;endArrow=none;endFill=0;" edge="1" parent="1" source="KvnRA5Yr2zpOSTINbMvu-72" target="0FscZG6fRG8HBKqRgame-5">
          <mxGeometry relative="1" as="geometry" />
        </mxCell>
        <mxCell id="KvnRA5Yr2zpOSTINbMvu-72" value="Выбран&lt;br&gt;другой&lt;br&gt;таб" style="strokeWidth=2;html=1;shape=mxgraph.flowchart.decision;whiteSpace=wrap;" parent="1" vertex="1">
          <mxGeometry x="440" y="380" width="118.11" height="78.74" as="geometry" />
        </mxCell>
        <mxCell id="KvnRA5Yr2zpOSTINbMvu-111" style="edgeStyle=orthogonalEdgeStyle;rounded=0;orthogonalLoop=1;jettySize=auto;html=1;exitX=1;exitY=0.5;exitDx=0;exitDy=0;exitPerimeter=0;entryX=0;entryY=0.5;entryDx=0;entryDy=0;entryPerimeter=0;strokeWidth=2;endArrow=none;endFill=0;" parent="1" source="KvnRA5Yr2zpOSTINbMvu-80" target="KvnRA5Yr2zpOSTINbMvu-26" edge="1">
          <mxGeometry relative="1" as="geometry" />
        </mxCell>
        <mxCell id="KvnRA5Yr2zpOSTINbMvu-112" style="edgeStyle=orthogonalEdgeStyle;rounded=0;orthogonalLoop=1;jettySize=auto;html=1;exitX=0.5;exitY=1;exitDx=0;exitDy=0;exitPerimeter=0;strokeWidth=2;endArrow=none;endFill=0;" parent="1" source="KvnRA5Yr2zpOSTINbMvu-80" target="KvnRA5Yr2zpOSTINbMvu-22" edge="1">
          <mxGeometry relative="1" as="geometry" />
        </mxCell>
        <mxCell id="KvnRA5Yr2zpOSTINbMvu-80" value="Выбран&lt;br&gt;другой&lt;br&gt;таб" style="strokeWidth=2;html=1;shape=mxgraph.flowchart.decision;whiteSpace=wrap;" parent="1" vertex="1">
          <mxGeometry x="880" y="876.85" width="118.11" height="78.74" as="geometry" />
        </mxCell>
        <mxCell id="KvnRA5Yr2zpOSTINbMvu-130" style="edgeStyle=orthogonalEdgeStyle;rounded=0;orthogonalLoop=1;jettySize=auto;html=1;exitX=0.5;exitY=1;exitDx=0;exitDy=0;exitPerimeter=0;entryX=0.5;entryY=1;entryDx=0;entryDy=0;entryPerimeter=0;strokeWidth=2;endArrow=none;endFill=0;" parent="1" source="KvnRA5Yr2zpOSTINbMvu-85" target="KvnRA5Yr2zpOSTINbMvu-88" edge="1">
          <mxGeometry relative="1" as="geometry" />
        </mxCell>
        <mxCell id="KvnRA5Yr2zpOSTINbMvu-170" style="edgeStyle=orthogonalEdgeStyle;rounded=0;orthogonalLoop=1;jettySize=auto;html=1;exitX=0;exitY=0.5;exitDx=0;exitDy=0;exitPerimeter=0;entryX=1;entryY=0.5;entryDx=0;entryDy=0;entryPerimeter=0;strokeWidth=2;" parent="1" source="KvnRA5Yr2zpOSTINbMvu-85" target="KvnRA5Yr2zpOSTINbMvu-159" edge="1">
          <mxGeometry relative="1" as="geometry" />
        </mxCell>
        <mxCell id="KvnRA5Yr2zpOSTINbMvu-85" value="Вернуться&lt;br&gt;назад" style="strokeWidth=2;html=1;shape=mxgraph.flowchart.decision;whiteSpace=wrap;" parent="1" vertex="1">
          <mxGeometry x="880" y="1076.85" width="118.11" height="78.74" as="geometry" />
        </mxCell>
        <mxCell id="KvnRA5Yr2zpOSTINbMvu-89" style="edgeStyle=orthogonalEdgeStyle;rounded=0;orthogonalLoop=1;jettySize=auto;html=1;exitX=0.5;exitY=0;exitDx=0;exitDy=0;exitPerimeter=0;strokeWidth=2;endArrow=none;endFill=0;" parent="1" source="KvnRA5Yr2zpOSTINbMvu-88" target="KvnRA5Yr2zpOSTINbMvu-53" edge="1">
          <mxGeometry relative="1" as="geometry">
            <Array as="points">
              <mxPoint x="939" y="1580" />
              <mxPoint x="499" y="1580" />
            </Array>
          </mxGeometry>
        </mxCell>
        <mxCell id="KvnRA5Yr2zpOSTINbMvu-88" value="Конец цикла" style="strokeWidth=2;html=1;shape=mxgraph.flowchart.loop_limit;whiteSpace=wrap;flipH=1;flipV=1;" parent="1" vertex="1">
          <mxGeometry x="880" y="1176.85" width="118.11" height="78.74" as="geometry" />
        </mxCell>
        <mxCell id="KvnRA5Yr2zpOSTINbMvu-135" style="edgeStyle=orthogonalEdgeStyle;rounded=0;orthogonalLoop=1;jettySize=auto;html=1;exitX=0.5;exitY=1;exitDx=0;exitDy=0;exitPerimeter=0;entryX=0.5;entryY=0;entryDx=0;entryDy=0;entryPerimeter=0;strokeWidth=2;endArrow=none;endFill=0;" parent="1" source="KvnRA5Yr2zpOSTINbMvu-90" target="KvnRA5Yr2zpOSTINbMvu-57" edge="1">
          <mxGeometry relative="1" as="geometry" />
        </mxCell>
        <mxCell id="KvnRA5Yr2zpOSTINbMvu-90" value="Бесконечный цикл" style="strokeWidth=2;html=1;shape=mxgraph.flowchart.loop_limit;whiteSpace=wrap;" parent="1" vertex="1">
          <mxGeometry x="1017.4799999999999" y="1076.85" width="118.11" height="78.74" as="geometry" />
        </mxCell>
        <mxCell id="KvnRA5Yr2zpOSTINbMvu-93" style="edgeStyle=orthogonalEdgeStyle;rounded=0;orthogonalLoop=1;jettySize=auto;html=1;exitX=0.5;exitY=0;exitDx=0;exitDy=0;exitPerimeter=0;entryX=0.5;entryY=1;entryDx=0;entryDy=0;entryPerimeter=0;strokeWidth=2;endArrow=none;endFill=0;" parent="1" source="KvnRA5Yr2zpOSTINbMvu-91" target="KvnRA5Yr2zpOSTINbMvu-53" edge="1">
          <mxGeometry relative="1" as="geometry">
            <Array as="points">
              <mxPoint x="1077" y="1580" />
              <mxPoint x="499" y="1580" />
            </Array>
          </mxGeometry>
        </mxCell>
        <mxCell id="KvnRA5Yr2zpOSTINbMvu-91" value="Конец цикла" style="strokeWidth=2;html=1;shape=mxgraph.flowchart.loop_limit;whiteSpace=wrap;flipH=1;flipV=1;" parent="1" vertex="1">
          <mxGeometry x="1017.4799999999999" y="1479.69" width="118.11" height="78.74" as="geometry" />
        </mxCell>
        <mxCell id="KvnRA5Yr2zpOSTINbMvu-102" style="edgeStyle=orthogonalEdgeStyle;rounded=0;orthogonalLoop=1;jettySize=auto;html=1;exitX=0.5;exitY=1;exitDx=0;exitDy=0;exitPerimeter=0;entryX=0.5;entryY=0;entryDx=0;entryDy=0;entryPerimeter=0;strokeWidth=2;endArrow=none;endFill=0;" parent="1" source="KvnRA5Yr2zpOSTINbMvu-100" target="KvnRA5Yr2zpOSTINbMvu-101" edge="1">
          <mxGeometry relative="1" as="geometry" />
        </mxCell>
        <mxCell id="KvnRA5Yr2zpOSTINbMvu-100" value="Бесконечный цикл" style="strokeWidth=2;html=1;shape=mxgraph.flowchart.loop_limit;whiteSpace=wrap;" parent="1" vertex="1">
          <mxGeometry x="724.41" y="483.15" width="118.11" height="78.74" as="geometry" />
        </mxCell>
        <mxCell id="KvnRA5Yr2zpOSTINbMvu-105" style="edgeStyle=orthogonalEdgeStyle;rounded=0;orthogonalLoop=1;jettySize=auto;html=1;exitX=0.5;exitY=1;exitDx=0;exitDy=0;exitPerimeter=0;entryX=0.5;entryY=0;entryDx=0;entryDy=0;entryPerimeter=0;strokeWidth=2;endArrow=none;endFill=0;" parent="1" source="KvnRA5Yr2zpOSTINbMvu-101" target="KvnRA5Yr2zpOSTINbMvu-13" edge="1">
          <mxGeometry relative="1" as="geometry" />
        </mxCell>
        <mxCell id="KvnRA5Yr2zpOSTINbMvu-107" style="edgeStyle=orthogonalEdgeStyle;rounded=0;orthogonalLoop=1;jettySize=auto;html=1;exitX=1;exitY=0.5;exitDx=0;exitDy=0;exitPerimeter=0;entryX=0;entryY=0.5;entryDx=0;entryDy=0;entryPerimeter=0;strokeWidth=2;endArrow=none;endFill=0;" parent="1" source="KvnRA5Yr2zpOSTINbMvu-101" target="KvnRA5Yr2zpOSTINbMvu-103" edge="1">
          <mxGeometry relative="1" as="geometry" />
        </mxCell>
        <mxCell id="KvnRA5Yr2zpOSTINbMvu-101" value="Выбран&lt;br&gt;другой&lt;br&gt;таб" style="strokeWidth=2;html=1;shape=mxgraph.flowchart.decision;whiteSpace=wrap;" parent="1" vertex="1">
          <mxGeometry x="724.41" y="583.15" width="118.11" height="78.74" as="geometry" />
        </mxCell>
        <mxCell id="KvnRA5Yr2zpOSTINbMvu-103" value="Б" style="strokeWidth=2;html=1;shape=mxgraph.flowchart.start_2;whiteSpace=wrap;" parent="1" vertex="1">
          <mxGeometry x="880" y="602.8400000000001" width="39.37" height="39.37" as="geometry" />
        </mxCell>
        <mxCell id="KvnRA5Yr2zpOSTINbMvu-110" style="edgeStyle=orthogonalEdgeStyle;rounded=0;orthogonalLoop=1;jettySize=auto;html=1;exitX=0.5;exitY=0;exitDx=0;exitDy=0;exitPerimeter=0;strokeWidth=2;endArrow=none;endFill=0;" parent="1" source="KvnRA5Yr2zpOSTINbMvu-104" target="KvnRA5Yr2zpOSTINbMvu-53" edge="1">
          <mxGeometry relative="1" as="geometry">
            <Array as="points">
              <mxPoint x="783" y="1580" />
              <mxPoint x="499" y="1580" />
            </Array>
          </mxGeometry>
        </mxCell>
        <mxCell id="KvnRA5Yr2zpOSTINbMvu-104" value="Конец цикла" style="strokeWidth=2;html=1;shape=mxgraph.flowchart.loop_limit;whiteSpace=wrap;flipH=1;flipV=1;" parent="1" vertex="1">
          <mxGeometry x="724.41" y="876.85" width="118.11" height="78.74" as="geometry" />
        </mxCell>
        <mxCell id="KvnRA5Yr2zpOSTINbMvu-115" style="edgeStyle=orthogonalEdgeStyle;rounded=0;orthogonalLoop=1;jettySize=auto;html=1;exitX=0.5;exitY=1;exitDx=0;exitDy=0;exitPerimeter=0;entryX=0.5;entryY=1;entryDx=0;entryDy=0;entryPerimeter=0;strokeWidth=2;endArrow=none;endFill=0;" parent="1" source="KvnRA5Yr2zpOSTINbMvu-113" target="KvnRA5Yr2zpOSTINbMvu-104" edge="1">
          <mxGeometry relative="1" as="geometry" />
        </mxCell>
        <mxCell id="KvnRA5Yr2zpOSTINbMvu-168" style="edgeStyle=orthogonalEdgeStyle;rounded=0;orthogonalLoop=1;jettySize=auto;html=1;exitX=0;exitY=0.5;exitDx=0;exitDy=0;exitPerimeter=0;strokeWidth=0;endArrow=none;endFill=0;" parent="1" source="KvnRA5Yr2zpOSTINbMvu-113" target="KvnRA5Yr2zpOSTINbMvu-167" edge="1">
          <mxGeometry relative="1" as="geometry" />
        </mxCell>
        <mxCell id="KvnRA5Yr2zpOSTINbMvu-169" style="edgeStyle=orthogonalEdgeStyle;rounded=0;orthogonalLoop=1;jettySize=auto;html=1;exitX=0;exitY=0.5;exitDx=0;exitDy=0;exitPerimeter=0;strokeWidth=2;" parent="1" source="KvnRA5Yr2zpOSTINbMvu-113" target="KvnRA5Yr2zpOSTINbMvu-167" edge="1">
          <mxGeometry relative="1" as="geometry" />
        </mxCell>
        <mxCell id="KvnRA5Yr2zpOSTINbMvu-113" value="Вернуться &lt;br&gt;назад" style="strokeWidth=2;html=1;shape=mxgraph.flowchart.decision;whiteSpace=wrap;" parent="1" vertex="1">
          <mxGeometry x="724.41" y="776.85" width="118.11" height="78.74" as="geometry" />
        </mxCell>
        <mxCell id="KvnRA5Yr2zpOSTINbMvu-118" value="Нет" style="text;html=1;align=center;verticalAlign=middle;resizable=0;points=[];autosize=1;strokeColor=none;fillColor=none;" parent="1" vertex="1">
          <mxGeometry x="460" y="650" width="40" height="30" as="geometry" />
        </mxCell>
        <mxCell id="KvnRA5Yr2zpOSTINbMvu-119" value="Нет" style="text;html=1;align=center;verticalAlign=middle;resizable=0;points=[];autosize=1;strokeColor=none;fillColor=none;" parent="1" vertex="1">
          <mxGeometry x="460" y="553.15" width="40" height="30" as="geometry" />
        </mxCell>
        <mxCell id="KvnRA5Yr2zpOSTINbMvu-120" value="Да" style="text;html=1;align=center;verticalAlign=middle;resizable=0;points=[];autosize=1;strokeColor=none;fillColor=none;" parent="1" vertex="1">
          <mxGeometry x="545.0000000000001" y="492.52" width="40" height="30" as="geometry" />
        </mxCell>
        <mxCell id="KvnRA5Yr2zpOSTINbMvu-121" value="Да" style="text;html=1;align=center;verticalAlign=middle;resizable=0;points=[];autosize=1;strokeColor=none;fillColor=none;" parent="1" vertex="1">
          <mxGeometry x="545.0000000000001" y="591.89" width="40" height="30" as="geometry" />
        </mxCell>
        <mxCell id="KvnRA5Yr2zpOSTINbMvu-123" value="Да" style="text;html=1;align=center;verticalAlign=middle;resizable=0;points=[];autosize=1;strokeColor=none;fillColor=none;" parent="1" vertex="1">
          <mxGeometry x="840" y="591.89" width="40" height="30" as="geometry" />
        </mxCell>
        <mxCell id="KvnRA5Yr2zpOSTINbMvu-124" value="Нет" style="text;html=1;align=center;verticalAlign=middle;resizable=0;points=[];autosize=1;strokeColor=none;fillColor=none;" parent="1" vertex="1">
          <mxGeometry x="740" y="650" width="40" height="30" as="geometry" />
        </mxCell>
        <mxCell id="KvnRA5Yr2zpOSTINbMvu-125" value="Нет" style="text;html=1;align=center;verticalAlign=middle;resizable=0;points=[];autosize=1;strokeColor=none;fillColor=none;" parent="1" vertex="1">
          <mxGeometry x="740" y="846.85" width="40" height="30" as="geometry" />
        </mxCell>
        <mxCell id="KvnRA5Yr2zpOSTINbMvu-126" value="Да" style="text;html=1;align=center;verticalAlign=middle;resizable=0;points=[];autosize=1;strokeColor=none;fillColor=none;" parent="1" vertex="1">
          <mxGeometry x="696.54" y="790" width="40" height="30" as="geometry" />
        </mxCell>
        <mxCell id="KvnRA5Yr2zpOSTINbMvu-127" value="Да" style="text;html=1;align=center;verticalAlign=middle;resizable=0;points=[];autosize=1;strokeColor=none;fillColor=none;" parent="1" vertex="1">
          <mxGeometry x="989.37" y="890" width="40" height="30" as="geometry" />
        </mxCell>
        <mxCell id="KvnRA5Yr2zpOSTINbMvu-128" value="Нет" style="text;html=1;align=center;verticalAlign=middle;resizable=0;points=[];autosize=1;strokeColor=none;fillColor=none;" parent="1" vertex="1">
          <mxGeometry x="900" y="948.11" width="40" height="30" as="geometry" />
        </mxCell>
        <mxCell id="KvnRA5Yr2zpOSTINbMvu-139" style="edgeStyle=orthogonalEdgeStyle;rounded=0;orthogonalLoop=1;jettySize=auto;html=1;exitX=1;exitY=0.5;exitDx=0;exitDy=0;exitPerimeter=0;entryX=0;entryY=0.5;entryDx=0;entryDy=0;strokeWidth=2;endArrow=none;endFill=0;" parent="1" source="KvnRA5Yr2zpOSTINbMvu-132" target="KvnRA5Yr2zpOSTINbMvu-133" edge="1">
          <mxGeometry relative="1" as="geometry" />
        </mxCell>
        <mxCell id="KvnRA5Yr2zpOSTINbMvu-179" style="edgeStyle=orthogonalEdgeStyle;rounded=0;orthogonalLoop=1;jettySize=auto;html=1;exitX=0.5;exitY=1;exitDx=0;exitDy=0;exitPerimeter=0;entryX=0.5;entryY=0;entryDx=0;entryDy=0;entryPerimeter=0;strokeWidth=2;endArrow=none;endFill=0;" parent="1" source="KvnRA5Yr2zpOSTINbMvu-132" target="KvnRA5Yr2zpOSTINbMvu-175" edge="1">
          <mxGeometry relative="1" as="geometry" />
        </mxCell>
        <mxCell id="KvnRA5Yr2zpOSTINbMvu-132" value="Кол-во в&lt;br&gt;корзине&lt;br&gt;изменено" style="strokeWidth=2;html=1;shape=mxgraph.flowchart.decision;whiteSpace=wrap;" parent="1" vertex="1">
          <mxGeometry x="1017.48" y="1281.26" width="118.11" height="78.74" as="geometry" />
        </mxCell>
        <mxCell id="KvnRA5Yr2zpOSTINbMvu-181" style="edgeStyle=orthogonalEdgeStyle;rounded=0;orthogonalLoop=1;jettySize=auto;html=1;exitX=0.5;exitY=1;exitDx=0;exitDy=0;entryX=0.5;entryY=0;entryDx=0;entryDy=0;entryPerimeter=0;strokeWidth=2;endArrow=none;endFill=0;" parent="1" source="KvnRA5Yr2zpOSTINbMvu-133" target="KvnRA5Yr2zpOSTINbMvu-175" edge="1">
          <mxGeometry relative="1" as="geometry">
            <Array as="points">
              <mxPoint x="1219" y="1370" />
              <mxPoint x="1077" y="1370" />
            </Array>
          </mxGeometry>
        </mxCell>
        <mxCell id="KvnRA5Yr2zpOSTINbMvu-133" value="Обновление&lt;br&gt;данных коризины" style="rounded=0;whiteSpace=wrap;html=1;absoluteArcSize=1;arcSize=14;strokeWidth=2;" parent="1" vertex="1">
          <mxGeometry x="1160" y="1281.26" width="118.11" height="78.74" as="geometry" />
        </mxCell>
        <mxCell id="KvnRA5Yr2zpOSTINbMvu-134" value="ТМ" style="strokeWidth=2;html=1;shape=mxgraph.flowchart.start_2;whiteSpace=wrap;" parent="1" vertex="1">
          <mxGeometry x="1199.37" y="1196.5300000000002" width="39.37" height="39.37" as="geometry" />
        </mxCell>
        <mxCell id="KvnRA5Yr2zpOSTINbMvu-142" value="Да" style="text;html=1;align=center;verticalAlign=middle;resizable=0;points=[];autosize=1;strokeColor=none;fillColor=none;" parent="1" vertex="1">
          <mxGeometry x="1128.11" y="1190" width="40" height="30" as="geometry" />
        </mxCell>
        <mxCell id="KvnRA5Yr2zpOSTINbMvu-143" value="Нет" style="text;html=1;align=center;verticalAlign=middle;resizable=0;points=[];autosize=1;strokeColor=none;fillColor=none;" parent="1" vertex="1">
          <mxGeometry x="1039.37" y="1250" width="40" height="30" as="geometry" />
        </mxCell>
        <mxCell id="KvnRA5Yr2zpOSTINbMvu-144" value="Да" style="text;html=1;align=center;verticalAlign=middle;resizable=0;points=[];autosize=1;strokeColor=none;fillColor=none;" parent="1" vertex="1">
          <mxGeometry x="1128.1100000000001" y="1289.37" width="40" height="30" as="geometry" />
        </mxCell>
        <mxCell id="KvnRA5Yr2zpOSTINbMvu-148" value="case BrandTab" style="text;html=1;align=center;verticalAlign=middle;resizable=0;points=[];autosize=1;strokeColor=none;fillColor=none;" parent="1" vertex="1">
          <mxGeometry x="170" y="290" width="100" height="30" as="geometry" />
        </mxCell>
        <mxCell id="KvnRA5Yr2zpOSTINbMvu-159" value="A2" style="strokeWidth=2;html=1;shape=mxgraph.flowchart.start_2;whiteSpace=wrap;" parent="1" vertex="1">
          <mxGeometry x="803.15" y="1096.5300000000002" width="39.37" height="39.37" as="geometry" />
        </mxCell>
        <mxCell id="KvnRA5Yr2zpOSTINbMvu-162" style="edgeStyle=orthogonalEdgeStyle;rounded=0;orthogonalLoop=1;jettySize=auto;html=1;exitX=0.5;exitY=1;exitDx=0;exitDy=0;exitPerimeter=0;entryX=0.5;entryY=0;entryDx=0;entryDy=0;entryPerimeter=0;strokeWidth=2;endArrow=none;endFill=0;" parent="1" source="KvnRA5Yr2zpOSTINbMvu-161" target="KvnRA5Yr2zpOSTINbMvu-100" edge="1">
          <mxGeometry relative="1" as="geometry" />
        </mxCell>
        <mxCell id="KvnRA5Yr2zpOSTINbMvu-161" value="A2" style="strokeWidth=2;html=1;shape=mxgraph.flowchart.start_2;whiteSpace=wrap;" parent="1" vertex="1">
          <mxGeometry x="763.78" y="419.37000000000023" width="39.37" height="39.37" as="geometry" />
        </mxCell>
        <mxCell id="KvnRA5Yr2zpOSTINbMvu-164" value="Да" style="text;html=1;align=center;verticalAlign=middle;resizable=0;points=[];autosize=1;strokeColor=none;fillColor=none;" parent="1" vertex="1">
          <mxGeometry x="849.37" y="1090" width="40" height="30" as="geometry" />
        </mxCell>
        <mxCell id="KvnRA5Yr2zpOSTINbMvu-165" value="Нет" style="text;html=1;align=center;verticalAlign=middle;resizable=0;points=[];autosize=1;strokeColor=none;fillColor=none;" parent="1" vertex="1">
          <mxGeometry x="900" y="1146.85" width="40" height="30" as="geometry" />
        </mxCell>
        <mxCell id="KvnRA5Yr2zpOSTINbMvu-171" style="edgeStyle=orthogonalEdgeStyle;rounded=0;orthogonalLoop=1;jettySize=auto;html=1;exitX=0.5;exitY=1;exitDx=0;exitDy=0;exitPerimeter=0;entryX=0.5;entryY=0;entryDx=0;entryDy=0;entryPerimeter=0;strokeWidth=2;endArrow=none;endFill=0;" parent="1" source="KvnRA5Yr2zpOSTINbMvu-166" target="KvnRA5Yr2zpOSTINbMvu-52" edge="1">
          <mxGeometry relative="1" as="geometry" />
        </mxCell>
        <mxCell id="KvnRA5Yr2zpOSTINbMvu-166" value="A1" style="strokeWidth=2;html=1;shape=mxgraph.flowchart.start_2;whiteSpace=wrap;" parent="1" vertex="1">
          <mxGeometry x="479.36999999999995" y="200.00000000000023" width="39.37" height="39.37" as="geometry" />
        </mxCell>
        <mxCell id="KvnRA5Yr2zpOSTINbMvu-167" value="A1" style="strokeWidth=2;html=1;shape=mxgraph.flowchart.start_2;whiteSpace=wrap;" parent="1" vertex="1">
          <mxGeometry x="645" y="796.5300000000002" width="39.37" height="39.37" as="geometry" />
        </mxCell>
        <mxCell id="KvnRA5Yr2zpOSTINbMvu-178" style="edgeStyle=orthogonalEdgeStyle;rounded=0;orthogonalLoop=1;jettySize=auto;html=1;exitX=0.5;exitY=1;exitDx=0;exitDy=0;exitPerimeter=0;entryX=0.5;entryY=1;entryDx=0;entryDy=0;entryPerimeter=0;endArrow=none;endFill=0;strokeWidth=2;" parent="1" source="KvnRA5Yr2zpOSTINbMvu-175" target="KvnRA5Yr2zpOSTINbMvu-91" edge="1">
          <mxGeometry relative="1" as="geometry" />
        </mxCell>
        <mxCell id="0FscZG6fRG8HBKqRgame-13" style="edgeStyle=orthogonalEdgeStyle;rounded=0;orthogonalLoop=1;jettySize=auto;html=1;exitX=1;exitY=0.5;exitDx=0;exitDy=0;exitPerimeter=0;entryX=0;entryY=0.5;entryDx=0;entryDy=0;entryPerimeter=0;strokeWidth=2;endArrow=none;endFill=0;" edge="1" parent="1" source="KvnRA5Yr2zpOSTINbMvu-175" target="KvnRA5Yr2zpOSTINbMvu-176">
          <mxGeometry relative="1" as="geometry" />
        </mxCell>
        <mxCell id="KvnRA5Yr2zpOSTINbMvu-175" value="Вернуться &lt;br&gt;назад" style="strokeWidth=2;html=1;shape=mxgraph.flowchart.decision;whiteSpace=wrap;" parent="1" vertex="1">
          <mxGeometry x="1017.48" y="1381.26" width="118.11" height="78.74" as="geometry" />
        </mxCell>
        <mxCell id="KvnRA5Yr2zpOSTINbMvu-176" value="A3" style="strokeWidth=2;html=1;shape=mxgraph.flowchart.start_2;whiteSpace=wrap;" parent="1" vertex="1">
          <mxGeometry x="1199.37" y="1400.9400000000003" width="39.37" height="39.37" as="geometry" />
        </mxCell>
        <mxCell id="KvnRA5Yr2zpOSTINbMvu-180" value="Да" style="text;html=1;align=center;verticalAlign=middle;resizable=0;points=[];autosize=1;strokeColor=none;fillColor=none;" parent="1" vertex="1">
          <mxGeometry x="1128.1100000000001" y="1390" width="40" height="30" as="geometry" />
        </mxCell>
        <mxCell id="KvnRA5Yr2zpOSTINbMvu-182" value="" style="endArrow=classic;html=1;rounded=0;strokeWidth=2;" parent="1" edge="1">
          <mxGeometry width="50" height="50" relative="1" as="geometry">
            <mxPoint x="1220" y="1370" as="sourcePoint" />
            <mxPoint x="1180" y="1370" as="targetPoint" />
          </mxGeometry>
        </mxCell>
        <mxCell id="KvnRA5Yr2zpOSTINbMvu-183" value="" style="endArrow=classic;html=1;rounded=0;strokeWidth=2;" parent="1" edge="1">
          <mxGeometry width="50" height="50" relative="1" as="geometry">
            <mxPoint x="1077" y="1580" as="sourcePoint" />
            <mxPoint x="1037" y="1580" as="targetPoint" />
          </mxGeometry>
        </mxCell>
        <mxCell id="KvnRA5Yr2zpOSTINbMvu-184" value="" style="endArrow=classic;html=1;rounded=0;strokeWidth=2;" parent="1" edge="1">
          <mxGeometry width="50" height="50" relative="1" as="geometry">
            <mxPoint x="940.0000000000001" y="1580" as="sourcePoint" />
            <mxPoint x="900.0000000000001" y="1580" as="targetPoint" />
          </mxGeometry>
        </mxCell>
        <mxCell id="KvnRA5Yr2zpOSTINbMvu-185" value="" style="endArrow=classic;html=1;rounded=0;strokeWidth=2;" parent="1" edge="1">
          <mxGeometry width="50" height="50" relative="1" as="geometry">
            <mxPoint x="780.0000000000001" y="1580" as="sourcePoint" />
            <mxPoint x="740.0000000000001" y="1580" as="targetPoint" />
          </mxGeometry>
        </mxCell>
        <mxCell id="KvnRA5Yr2zpOSTINbMvu-186" value="" style="endArrow=classic;html=1;rounded=0;strokeWidth=2;" parent="1" edge="1">
          <mxGeometry width="50" height="50" relative="1" as="geometry">
            <mxPoint x="640.0000000000001" y="1580" as="sourcePoint" />
            <mxPoint x="600.0000000000001" y="1580" as="targetPoint" />
          </mxGeometry>
        </mxCell>
        <mxCell id="KvnRA5Yr2zpOSTINbMvu-187" value="Л2" style="verticalLabelPosition=middle;verticalAlign=middle;html=1;shape=offPageConnector;rounded=0;size=0.5;strokeWidth=2;labelPosition=center;align=center;" parent="1" vertex="1">
          <mxGeometry x="159.37" y="1800" width="39.37" height="47.244" as="geometry" />
        </mxCell>
        <mxCell id="KvnRA5Yr2zpOSTINbMvu-191" value="" style="endArrow=classic;html=1;rounded=0;strokeWidth=2;" parent="1" edge="1">
          <mxGeometry width="50" height="50" relative="1" as="geometry">
            <mxPoint x="500.0000000000001" y="1720" as="sourcePoint" />
            <mxPoint x="460.0000000000001" y="1720" as="targetPoint" />
          </mxGeometry>
        </mxCell>
        <mxCell id="0FscZG6fRG8HBKqRgame-1" value="" style="rounded=0;whiteSpace=wrap;html=1;absoluteArcSize=1;arcSize=14;strokeWidth=2;strokeColor=none;fillColor=none;" vertex="1" parent="1">
          <mxGeometry x="40" y="40" width="40" height="40" as="geometry" />
        </mxCell>
        <mxCell id="0FscZG6fRG8HBKqRgame-2" value="Нет" style="text;html=1;align=center;verticalAlign=middle;resizable=0;points=[];autosize=1;strokeColor=none;fillColor=none;" vertex="1" parent="1">
          <mxGeometry x="1038.1100000000001" y="1449.69" width="40" height="30" as="geometry" />
        </mxCell>
        <mxCell id="0FscZG6fRG8HBKqRgame-3" value="Да" style="text;html=1;align=center;verticalAlign=middle;resizable=0;points=[];autosize=1;strokeColor=none;fillColor=none;" vertex="1" parent="1">
          <mxGeometry x="989.37" y="990" width="40" height="30" as="geometry" />
        </mxCell>
        <mxCell id="0FscZG6fRG8HBKqRgame-4" value="Нет" style="text;html=1;align=center;verticalAlign=middle;resizable=0;points=[];autosize=1;strokeColor=none;fillColor=none;" vertex="1" parent="1">
          <mxGeometry x="900" y="1046.85" width="40" height="30" as="geometry" />
        </mxCell>
        <mxCell id="0FscZG6fRG8HBKqRgame-5" value="ТМ" style="strokeWidth=2;html=1;shape=mxgraph.flowchart.start_2;whiteSpace=wrap;" vertex="1" parent="1">
          <mxGeometry x="600" y="399.68000000000023" width="39.37" height="39.37" as="geometry" />
        </mxCell>
        <mxCell id="0FscZG6fRG8HBKqRgame-7" value="Да" style="text;html=1;align=center;verticalAlign=middle;resizable=0;points=[];autosize=1;strokeColor=none;fillColor=none;" vertex="1" parent="1">
          <mxGeometry x="545.0000000000001" y="389.37" width="40" height="30" as="geometry" />
        </mxCell>
        <mxCell id="0FscZG6fRG8HBKqRgame-8" value="Нет" style="text;html=1;align=center;verticalAlign=middle;resizable=0;points=[];autosize=1;strokeColor=none;fillColor=none;" vertex="1" parent="1">
          <mxGeometry x="460" y="450" width="40" height="30" as="geometry" />
        </mxCell>
        <mxCell id="0FscZG6fRG8HBKqRgame-10" value="Да" style="text;html=1;align=center;verticalAlign=middle;resizable=0;points=[];autosize=1;strokeColor=none;fillColor=none;" vertex="1" parent="1">
          <mxGeometry x="840" y="690" width="40" height="30" as="geometry" />
        </mxCell>
        <mxCell id="0FscZG6fRG8HBKqRgame-11" value="Нет" style="text;html=1;align=center;verticalAlign=middle;resizable=0;points=[];autosize=1;strokeColor=none;fillColor=none;" vertex="1" parent="1">
          <mxGeometry x="740" y="746.85" width="40" height="30" as="geometry" />
        </mxCell>
        <mxCell id="0FscZG6fRG8HBKqRgame-12" value="Нет" style="text;html=1;align=center;verticalAlign=middle;resizable=0;points=[];autosize=1;strokeColor=none;fillColor=none;" vertex="1" parent="1">
          <mxGeometry x="1040" y="1350" width="40" height="30" as="geometry" />
        </mxCell>
      </root>
    </mxGraphModel>
  </diagram>
</mxfile>
